<?xml version="1.0" standalone="no"?>
<!DOCTYPE svg PUBLIC "-//W3C//DTD SVG 20010904//EN"
 "http://www.w3.org/TR/2001/REC-SVG-20010904/DTD/svg10.dtd">
<svg version="1.0" xmlns="http://www.w3.org/2000/svg"
 width="260.000000pt" height="260.000000pt" viewBox="0 0 260.000000 260.000000"
 preserveAspectRatio="xMidYMid meet">
<metadata>
Created by potrace 1.11, written by Peter Selinger 2001-2013
</metadata>
<g transform="translate(0.000000,260.000000) scale(0.100000,-0.100000)"
fill="#000000" stroke="none">
<path d="M1125 2589 c-399 -70 -702 -260 -908 -571 -153 -231 -218 -461 -213
-748 4 -219 40 -367 134 -558 119 -240 348 -470 577 -579 33 -15 63 -32 66
-37 4 -5 20 -9 37 -10 17 0 28 -3 26 -5 -7 -7 124 -48 203 -64 52 -11 126 -14
275 -12 175 2 221 5 248 15 11 4 26 7 48 8 13 1 21 6 18 11 -3 4 6 6 21 3 17
-3 24 -1 19 6 -4 6 2 8 16 4 13 -3 19 -1 15 5 -5 7 1 9 15 5 16 -4 19 -2 13 8
-5 9 -4 11 4 6 16 -10 53 3 45 16 -4 7 -2 8 5 4 15 -9 53 3 46 15 -3 5 2 6 11
2 13 -5 15 -3 9 7 -5 8 -4 11 3 6 14 -9 63 14 55 27 -4 6 -1 7 6 2 8 -4 24 1
39 12 15 11 35 22 45 26 10 4 15 11 12 17 -3 5 0 7 8 4 9 -3 22 4 31 18 9 13
20 23 24 23 4 0 6 4 4 8 -1 5 2 6 7 2 13 -7 62 35 55 47 -3 5 -2 7 3 6 14 -4
54 23 48 33 -4 5 -1 8 7 7 7 -2 12 3 10 10 -1 6 3 11 10 10 7 -2 12 4 13 12 0
8 5 15 12 15 15 0 90 82 98 108 4 9 11 17 17 17 5 0 8 7 4 15 -3 8 0 14 7 12
7 -1 11 6 11 15 -1 10 3 15 9 11 6 -4 8 0 4 10 -4 10 -2 16 6 14 7 -1 11 6 11
15 -1 10 1 16 5 13 11 -6 43 54 35 67 -4 6 -3 8 3 5 13 -8 26 20 16 35 -3 6
-1 8 4 5 12 -8 46 69 38 84 -4 5 -1 9 5 9 7 0 9 7 6 16 -3 8 -2 13 3 10 10 -6
33 73 25 86 -3 4 0 8 7 8 7 0 9 10 7 25 -3 13 -1 22 3 19 5 -3 9 5 10 18 0 13
3 32 6 43 9 34 12 406 4 401 -5 -3 -6 5 -4 18 9 47 -43 223 -105 359 -103 222
-301 442 -517 574 -113 68 -270 129 -410 158 -91 19 -352 28 -430 14z"/>
</g>
</svg>
